<?xml version="1.0" encoding="utf-8"?>
<!-- Generator: Adobe Illustrator 16.0.4, SVG Export Plug-In . SVG Version: 6.00 Build 0)  -->
<!DOCTYPE svg PUBLIC "-//W3C//DTD SVG 1.1//EN" "http://www.w3.org/Graphics/SVG/1.1/DTD/svg11.dtd">
<svg version="1.1" id="Layer_1" xmlns="http://www.w3.org/2000/svg" xmlns:xlink="http://www.w3.org/1999/xlink" x="0px" y="0px"
	 width="266.125px" height="80.64px" viewBox="0 0 266.125 80.64" enable-background="new 0 0 266.125 80.64" xml:space="preserve">
<g>
	<path fill="#FBD277" d="M82.251,55.14L71.216,44.552c-1.045-0.992-2.82-0.949-3.822,0.078L52.753,59.896l-5.364,5.592
		c-0.5,0.516-0.762,1.203-0.748,1.922c0.017,0.729,0.313,1.399,0.832,1.901l0.633,0.604l0.321,0.306
		c0.137-0.109,0.28-0.209,0.425-0.306c2.09-1.378,4.968-1.372,7.077,0c0.313,0.204,0.61,0.437,0.885,0.7
		c2.33,2.238,2.594,5.82,0.742,8.357l0.959,0.927c0.521,0.495,1.211,0.759,1.935,0.741c0.719-0.018,1.386-0.311,1.879-0.826
		l9.497-9.899l9.61-10.019l0.9-0.939c0.497-0.52,0.762-1.202,0.748-1.926C83.068,56.312,82.772,55.642,82.251,55.14z M55.391,63.077
		c-0.712,0.019-1.302-0.544-1.322-1.256c-0.014-0.705,0.541-1.299,1.255-1.309c0.712-0.025,1.309,0.536,1.323,1.242
		C56.665,62.468,56.105,63.06,55.391,63.077z M58.74,66.26c-0.71,0.023-1.301-0.539-1.318-1.256
		c-0.017-0.712,0.544-1.304,1.258-1.323c0.706-0.018,1.297,0.545,1.317,1.264C60.015,65.655,59.456,66.249,58.74,66.26z
		 M62.093,69.519c-0.709,0.02-1.3-0.543-1.315-1.249c-0.021-0.712,0.539-1.304,1.254-1.327c0.709-0.02,1.3,0.543,1.321,1.249
		C63.371,68.909,62.807,69.495,62.093,69.519z M65.452,72.78c-0.711,0.018-1.304-0.545-1.323-1.263
		c-0.017-0.706,0.544-1.298,1.253-1.31c0.713-0.023,1.309,0.537,1.322,1.249C66.727,72.163,66.164,72.761,65.452,72.78z"/>
	<g>
		<path d="M145.222,51.562c-0.869,0-1.64,0.197-2.306,0.598c-0.667,0.406-1.233,0.866-1.701,1.401
			c0.132,0.569,0.226,1.216,0.273,1.947c0.056,0.739,0.076,1.446,0.076,2.107v12.661h-8.005V57.463c0-2.032-0.26-3.519-0.78-4.472
			c-0.517-0.951-1.423-1.43-2.724-1.43c-0.833,0-1.559,0.182-2.177,0.546c-0.619,0.373-1.109,0.825-1.476,1.36v16.809h-8.007V45.756
			h7.706v3.204c0.77-1.334,1.777-2.287,3.028-2.857c1.249-0.559,2.528-0.848,3.825-0.848c1.603,0,2.932,0.33,3.986,0.977
			c1.049,0.654,2.038,1.709,2.974,3.172c1.735-2.764,4.456-4.148,8.159-4.148c1.598,0,2.949,0.338,4.051,1.027
			c1.102,0.682,1.994,1.59,2.678,2.73c0.686,1.129,1.174,2.44,1.477,3.928c0.301,1.479,0.451,3.043,0.451,4.675v12.661h-8.007
			V57.463c0-2.032-0.258-3.519-0.776-4.472C147.429,52.04,146.522,51.562,145.222,51.562z"/>
		<path d="M162.132,38.596c0-1.266,0.415-2.337,1.254-3.205c0.833-0.868,1.918-1.301,3.252-1.301c1.331,0,2.416,0.433,3.254,1.301
			c0.834,0.868,1.25,1.939,1.25,3.205c0,1.277-0.416,2.339-1.25,3.206c-0.838,0.866-1.923,1.301-3.254,1.301
			c-1.334,0-2.419-0.435-3.252-1.301C162.547,40.935,162.132,39.873,162.132,38.596z M162.636,70.276V45.756h8.006v24.521H162.636z"
			/>
		<path d="M184.555,62.771c0,0.635,0.135,1.121,0.398,1.479c0.268,0.35,0.786,0.527,1.552,0.527c0.469,0,1.031-0.052,1.706-0.152
			l0.25,5.5c-0.671,0.205-1.429,0.365-2.278,0.477c-0.852,0.119-1.727,0.178-2.628,0.178c-1.337,0-2.452-0.203-3.354-0.602
			c-0.9-0.401-1.619-0.936-2.15-1.6c-0.535-0.664-0.92-1.42-1.153-2.279c-0.23-0.849-0.349-1.726-0.349-2.627V34.949h8.007V62.771z"
			/>
		<path d="M192.21,70.276V34.949h8.006v13.714c0.736-1.172,1.684-2.032,2.852-2.576c1.17-0.561,2.407-0.832,3.703-0.832
			c1.639,0,3.023,0.338,4.153,1.027c1.136,0.682,2.063,1.59,2.782,2.73c0.714,1.129,1.23,2.44,1.547,3.928
			c0.318,1.479,0.479,3.043,0.479,4.675v12.661h-8.009V57.463c0-2.032-0.317-3.519-0.952-4.472c-0.634-0.951-1.598-1.43-2.898-1.43
			c-0.832,0-1.561,0.182-2.178,0.546c-0.62,0.373-1.114,0.825-1.479,1.36v16.809H192.21z"/>
		<path d="M235.048,67.872c-0.766,0.773-1.812,1.453-3.129,2.029c-1.314,0.588-2.76,0.877-4.328,0.877
			c-1.101,0-2.085-0.178-2.951-0.553c-0.867-0.365-1.594-0.859-2.176-1.505c-0.586-0.629-1.038-1.369-1.352-2.22
			c-0.318-0.858-0.477-1.759-0.477-2.729c0-2.27,0.711-3.979,2.125-5.128c1.421-1.147,3.432-1.827,6.033-2.032
			c0.964-0.066,1.995-0.108,3.078-0.152c1.082-0.027,2.04-0.061,2.879-0.093v-0.8c0-2.678-1.489-4.006-4.457-4.006
			c-1.169,0-2.295,0.137-3.38,0.4c-1.083,0.265-2.073,0.638-2.974,1.098l-1.451-5.553c1.165-0.662,2.541-1.207,4.129-1.625
			c1.586-0.416,3.307-0.627,5.178-0.627c3.436,0,6.119,0.892,8.055,2.677c1.939,1.786,2.903,4.466,2.903,8.034v14.311h-7.706V67.872
			z M230.693,65.524c0.771,0,1.491-0.102,2.177-0.299c0.686-0.203,1.31-0.468,1.881-0.797v-3.658
			c-0.805,0.07-1.522,0.145-2.153,0.223c-0.637,0.084-1.254,0.161-1.853,0.227c-1.634,0.197-2.455,0.971-2.455,2.299
			c0,0.603,0.211,1.087,0.627,1.454C229.333,65.337,229.925,65.524,230.693,65.524z"/>
		<path d="M266.125,62.269c0,1.367-0.255,2.593-0.773,3.656c-0.52,1.062-1.249,1.963-2.203,2.676
			c-0.952,0.725-2.073,1.26-3.381,1.625c-1.3,0.375-2.732,0.553-4.301,0.553c-1.33,0-2.738-0.127-4.201-0.371
			c-1.47-0.257-2.804-0.632-4.004-1.123l1.1-5.562c1.036,0.434,2.178,0.758,3.427,0.979c1.256,0.213,2.349,0.322,3.28,0.322
			c0.964,0,1.805-0.138,2.524-0.424c0.72-0.282,1.08-0.758,1.08-1.43c0-0.604-0.32-1.02-0.953-1.277
			c-0.633-0.244-1.585-0.601-2.854-1.08c-1.031-0.363-2.001-0.762-2.903-1.213c-0.899-0.451-1.673-0.986-2.324-1.607
			c-0.653-0.621-1.162-1.326-1.526-2.126c-0.369-0.8-0.547-1.735-0.547-2.806c0-2.662,0.896-4.635,2.695-5.901
			c1.805-1.268,4.157-1.903,7.061-1.903c1.535,0,2.933,0.143,4.199,0.424c1.268,0.281,2.487,0.758,3.656,1.428l-1.102,5.255
			c-0.9-0.399-1.853-0.73-2.852-0.968c-1-0.256-2.055-0.383-3.154-0.383c-0.967,0-1.711,0.094-2.224,0.271
			c-0.52,0.187-0.777,0.561-0.777,1.131c0,0.561,0.31,0.978,0.923,1.226c0.619,0.245,1.41,0.558,2.381,0.925
			c0.733,0.271,1.551,0.595,2.451,0.979c0.902,0.383,1.744,0.876,2.525,1.479c0.781,0.595,1.44,1.319,1.976,2.17
			C265.86,60.05,266.125,61.067,266.125,62.269z"/>
	</g>
	<g>
		<rect y="27.474" fill="#BE1E2D" width="10.019" height="42.44"/>
		<rect fill="#EF4136" width="10.019" height="27.474"/>
	</g>
	<path fill="#F89823" d="M63.036,10.558l-7.377,7.657c1.493,4.293,0.539,9.253-2.882,12.681l-5.273,5.276l-3.509,3.506l-3.407,3.577
		l6.999,6.998l3.585-3.589l8.69-8.686C67.291,30.542,68.338,19.124,63.036,10.558z"/>
	<path fill="#FBB040" d="M62.994,10.479c-0.874-1.405-1.906-2.738-3.126-3.959L59.85,6.502c-0.029-0.031-0.059-0.06-0.089-0.084
		c-1.182-1.166-2.473-2.165-3.846-3.027C52.414,1.196,48.377,0,44.145,0c-4.235,0-8.275,1.196-11.774,3.391
		c-1.415,0.879-2.745,1.921-3.958,3.129l0,0l0,0c-1.208,1.208-2.244,2.536-3.129,3.954c-2.194,3.5-3.384,7.549-3.387,11.784
		l-0.002,5.006h10.019v-5.006c0-3.271,1.274-6.346,3.585-8.655c2.311-2.31,5.381-3.577,8.647-3.577c3.264,0,6.332,1.267,8.641,3.577
		l0.034,0.029l0,0c1.322,1.346,2.267,2.907,2.84,4.583l7.377-7.657C63.023,10.529,63.008,10.51,62.994,10.479z"/>
	<path fill="#009444" d="M104.618,44.917c-1.014-3.911-3.185-7.357-6.134-9.959c-3.524,3.11-8.13,5.013-13.188,5.013
		c5.498,0,9.962,4.463,9.962,9.959c0,5.491-4.464,9.966-9.962,9.966h-1.507c-0.07,0.083-0.139,0.166-0.215,0.246l-9.373,9.772
		h11.096c9.287,0,17.09-6.376,19.321-14.978c0.418-1.598,0.664-3.278,0.664-5.007C105.281,48.202,105.036,46.526,104.618,44.917z"/>
	<path fill="none" d="M48.852,69.914h-0.746l0.321,0.306C48.564,70.11,48.707,70.011,48.852,69.914z"/>
	<path fill="#F15A29" d="M46.155,64.304l4.227-4.408H38.584l12.588-13.231l-3.585,3.589l-6.999-6.998L15.22,69.914h30.519
		c-0.51-0.714-0.795-1.565-0.813-2.464C44.9,66.265,45.338,65.147,46.155,64.304z"/>
	<g>
		<path fill="#D2472C" d="M73.312,62.449l-2.225-5.095l2.294-2.102c0.472-0.489,0.816-1.872,0.396-2.285
			c-0.419-0.395-1.794,0-2.257,0.492l-1.992,2.368L64.28,53.8c-0.185-0.076-0.391-0.006-0.5,0.156
			c-0.106,0.167-0.081,0.383,0.062,0.525l3.775,3.62l-1.911,2.272c-0.042,0.042-0.072,0.078-0.101,0.113l-1.753-0.682
			c-0.158-0.06-0.345,0-0.434,0.143c-0.087,0.145-0.066,0.329,0.053,0.449l3.27,3.129c0.123,0.125,0.308,0.137,0.449,0.042
			c0.142-0.097,0.194-0.288,0.125-0.437l-0.726-1.663c0.042-0.03,0.085-0.078,0.123-0.12l2.196-2.01l3.733,3.576
			c0.144,0.133,0.363,0.149,0.523,0.037C73.33,62.839,73.387,62.628,73.312,62.449z"/>
	</g>
	<path fill="#8DC63F" d="M102.655,10.168c-2.676-4.725-7.207-8.249-12.617-9.577C88.518,0.222,86.933,0,85.296,0
		c0,0-0.858,0-1.273,0c-4.232,0-8.272,1.196-11.776,3.391c-1.412,0.879-2.745,1.921-3.955,3.129
		c-1.211,1.208-2.243,2.536-3.128,3.954c-2.196,3.5-3.388,7.549-3.388,11.784l-0.007,5.006h10.023v-5.006
		c0-3.271,1.273-6.346,3.584-8.655c2.307-2.31,5.382-3.577,8.646-3.577c3.263,0,6.333,1.267,8.644,3.577l0.034,0.029
		c1.321,1.346,1.988,2.537,2.4,4.599l7.768-7.632C102.868,10.6,102.725,10.271,102.655,10.168z"/>
	<path fill="#39B54A" d="M104.618,14.979c0,0-0.011,0.004-0.029,0.01c-0.371-1.507-1.026-2.981-1.412-3.779
		c-0.102-0.204-0.201-0.41-0.309-0.61l-7.768,7.632c0,0,0.004,0,0.005,0c0,0-0.001,0.001-0.002,0.001
		c0.102,0.567,0.155,1.151,0.155,1.748c0,1.428-0.305,2.787-0.849,4.013c-1.543,3.499-5.046,5.957-9.114,5.957H80.29v10.021h5.007
		c5.057,0,9.664-1.903,13.188-5.013c2.949-2.603,5.12-6.048,6.134-9.966c0.088-0.329,0.158-0.664,0.23-0.999
		c0.274-1.304,0.434-2.632,0.434-4.013C105.281,18.25,105.036,16.576,104.618,14.979z"/>
</g>
</svg>
